<?xml version="1.0" encoding="UTF-8"?>
<svg xmlns="http://www.w3.org/2000/svg" xmlns:xlink="http://www.w3.org/1999/xlink" width="379.842pt" height="175.748pt" viewBox="0 0 379.842 175.748">
<defs>
<g>
<g id="glyph-0-0">
<path d="M 5.625 -5.390625 C 5.625 -5.515625 5.625 -5.59375 5.515625 -5.59375 C 5.46875 -5.59375 5.453125 -5.59375 5.390625 -5.484375 L 4.984375 -4.90625 C 4.6875 -5.203125 4.171875 -5.59375 3.40625 -5.59375 C 1.8125 -5.59375 0.46875 -4.3125 0.46875 -2.71875 C 0.46875 -1.109375 1.796875 0.171875 3.40625 0.171875 C 4.75 0.171875 5.625 -0.890625 5.625 -1.859375 C 5.625 -1.9375 5.625 -2.015625 5.5 -2.015625 C 5.40625 -2.015625 5.390625 -1.96875 5.375 -1.890625 C 5.3125 -0.671875 4.328125 -0.09375 3.484375 -0.09375 C 2.8125 -0.09375 1.296875 -0.515625 1.296875 -2.71875 C 1.296875 -4.859375 2.734375 -5.34375 3.484375 -5.34375 C 4.234375 -5.34375 5.15625 -4.796875 5.359375 -3.4375 C 5.375 -3.375 5.375 -3.3125 5.484375 -3.3125 C 5.625 -3.3125 5.625 -3.375 5.625 -3.515625 Z M 5.625 -5.390625 "/>
</g>
<g id="glyph-0-1">
<path d="M 6.09375 -2.703125 C 6.09375 -4.296875 4.828125 -5.59375 3.28125 -5.59375 C 1.71875 -5.59375 0.46875 -4.28125 0.46875 -2.703125 C 0.46875 -1.078125 1.765625 0.171875 3.28125 0.171875 C 4.8125 0.171875 6.09375 -1.09375 6.09375 -2.703125 Z M 3.28125 -0.09375 C 2.421875 -0.09375 1.296875 -0.8125 1.296875 -2.8125 C 1.296875 -4.71875 2.453125 -5.359375 3.28125 -5.359375 C 4.140625 -5.359375 5.265625 -4.6875 5.265625 -2.8125 C 5.265625 -0.796875 4.125 -0.09375 3.28125 -0.09375 Z M 3.28125 -0.09375 "/>
</g>
<g id="glyph-0-2">
<path d="M 1.9375 -5.3125 C 1.84375 -5.421875 1.84375 -5.4375 1.671875 -5.4375 L 0.34375 -5.4375 L 0.34375 -5.171875 L 0.578125 -5.171875 C 0.71875 -5.171875 0.78125 -5.171875 0.9375 -5.15625 C 1.140625 -5.125 1.15625 -5.125 1.15625 -4.96875 L 1.15625 -0.84375 C 1.15625 -0.640625 1.15625 -0.265625 0.34375 -0.265625 L 0.34375 0 C 0.703125 -0.03125 1.078125 -0.03125 1.28125 -0.03125 C 1.5 -0.03125 1.875 -0.03125 2.234375 0 L 2.234375 -0.265625 C 1.421875 -0.265625 1.421875 -0.640625 1.421875 -0.84375 L 1.421875 -4.90625 L 4.875 -0.125 C 4.9375 -0.03125 4.953125 0 5.03125 0 C 5.171875 0 5.171875 -0.078125 5.171875 -0.21875 L 5.171875 -4.578125 C 5.171875 -4.78125 5.171875 -5.171875 5.96875 -5.171875 L 5.96875 -5.4375 C 5.609375 -5.40625 5.234375 -5.40625 5.03125 -5.40625 C 4.828125 -5.40625 4.453125 -5.40625 4.09375 -5.4375 L 4.09375 -5.171875 C 4.90625 -5.171875 4.90625 -4.78125 4.90625 -4.578125 L 4.90625 -1.1875 Z M 1.9375 -5.3125 "/>
</g>
<g id="glyph-0-3">
<path d="M 5.625 -5.375 L 0.46875 -5.375 L 0.296875 -3.578125 L 0.546875 -3.578125 C 0.65625 -4.921875 0.84375 -5.109375 2.0625 -5.109375 C 2.21875 -5.109375 2.453125 -5.109375 2.515625 -5.09375 C 2.671875 -5.0625 2.6875 -4.984375 2.6875 -4.78125 L 2.6875 -0.65625 C 2.6875 -0.375 2.6875 -0.265625 1.859375 -0.265625 L 1.546875 -0.265625 L 1.546875 0 C 1.84375 -0.03125 2.703125 -0.03125 3.046875 -0.03125 C 3.390625 -0.03125 4.25 -0.03125 4.546875 0 L 4.546875 -0.265625 L 4.234375 -0.265625 C 3.40625 -0.265625 3.40625 -0.375 3.40625 -0.65625 L 3.40625 -4.78125 C 3.40625 -4.96875 3.40625 -5.0625 3.578125 -5.09375 C 3.65625 -5.109375 3.875 -5.109375 4.03125 -5.109375 C 5.25 -5.109375 5.4375 -4.921875 5.546875 -3.578125 L 5.796875 -3.578125 Z M 5.625 -5.375 "/>
</g>
<g id="glyph-0-4">
<path d="M 3.765625 -2.703125 C 4.390625 -2.859375 5.15625 -3.3125 5.15625 -4 C 5.15625 -4.78125 4.140625 -5.4375 2.953125 -5.4375 L 0.359375 -5.4375 L 0.359375 -5.171875 L 0.546875 -5.171875 C 1.15625 -5.171875 1.171875 -5.078125 1.171875 -4.78125 L 1.171875 -0.640625 C 1.171875 -0.34375 1.15625 -0.265625 0.546875 -0.265625 L 0.359375 -0.265625 L 0.359375 0 C 1.046875 -0.03125 1.0625 -0.03125 1.515625 -0.03125 C 1.984375 -0.03125 2 -0.03125 2.6875 0 L 2.6875 -0.265625 L 2.5 -0.265625 C 1.890625 -0.265625 1.875 -0.34375 1.875 -0.640625 L 1.875 -2.609375 L 2.875 -2.609375 C 3.46875 -2.609375 3.734375 -2.3125 3.78125 -2.25 C 4.015625 -2 4.015625 -1.84375 4.015625 -1.296875 C 4.015625 -0.796875 4.015625 -0.46875 4.34375 -0.171875 C 4.6875 0.125 5.140625 0.171875 5.375 0.171875 C 6.03125 0.171875 6.1875 -0.484375 6.1875 -0.71875 C 6.1875 -0.765625 6.1875 -0.875 6.0625 -0.875 C 5.953125 -0.875 5.953125 -0.78125 5.9375 -0.734375 C 5.90625 -0.234375 5.625 -0.0625 5.40625 -0.0625 C 4.96875 -0.0625 4.921875 -0.421875 4.78125 -1.4375 C 4.71875 -1.890625 4.640625 -2.4375 3.765625 -2.703125 Z M 2.859375 -2.828125 L 1.875 -2.828125 L 1.875 -4.84375 C 1.875 -5.046875 1.890625 -5.140625 2.078125 -5.15625 C 2.140625 -5.171875 2.40625 -5.171875 2.5625 -5.171875 C 3.28125 -5.171875 4.328125 -5.171875 4.328125 -4 C 4.328125 -3.125 3.6875 -2.828125 2.859375 -2.828125 Z M 2.859375 -2.828125 "/>
</g>
<g id="glyph-0-5">
<path d="M 4.921875 -2.0625 L 4.671875 -2.0625 C 4.578125 -1.234375 4.46875 -0.265625 3 -0.265625 L 2.265625 -0.265625 C 1.90625 -0.265625 1.890625 -0.3125 1.890625 -0.59375 L 1.890625 -4.78125 C 1.890625 -5.0625 1.890625 -5.171875 2.625 -5.171875 L 2.890625 -5.171875 L 2.890625 -5.4375 C 2.53125 -5.40625 1.953125 -5.40625 1.578125 -5.40625 C 1.046875 -5.40625 1.03125 -5.40625 0.34375 -5.4375 L 0.34375 -5.171875 L 0.53125 -5.171875 C 1.140625 -5.171875 1.15625 -5.078125 1.15625 -4.78125 L 1.15625 -0.640625 C 1.15625 -0.34375 1.140625 -0.265625 0.53125 -0.265625 L 0.34375 -0.265625 L 0.34375 0 L 4.6875 0 Z M 4.921875 -2.0625 "/>
</g>
<g id="glyph-0-6">
<path d="M 3.359375 -5.5 C 3.328125 -5.609375 3.296875 -5.671875 3.171875 -5.671875 C 3.015625 -5.671875 3 -5.609375 2.953125 -5.5 L 1.1875 -0.8125 C 1.109375 -0.609375 0.9375 -0.265625 0.28125 -0.265625 L 0.28125 0 C 0.546875 -0.03125 0.96875 -0.03125 1.109375 -0.03125 C 1.359375 -0.03125 1.59375 -0.03125 1.984375 0 L 1.984375 -0.265625 C 1.640625 -0.265625 1.4375 -0.421875 1.4375 -0.65625 C 1.4375 -0.71875 1.4375 -0.734375 1.46875 -0.828125 L 1.84375 -1.828125 L 4.015625 -1.828125 L 4.453125 -0.640625 C 4.5 -0.546875 4.5 -0.515625 4.5 -0.5 C 4.5 -0.265625 4.078125 -0.265625 3.859375 -0.265625 L 3.859375 0 C 4.53125 -0.03125 4.546875 -0.03125 4.984375 -0.03125 C 5.4375 -0.03125 5.578125 -0.03125 6.03125 0 L 6.03125 -0.265625 L 5.90625 -0.265625 C 5.40625 -0.265625 5.328125 -0.328125 5.21875 -0.59375 Z M 2.921875 -4.6875 L 3.90625 -2.078125 L 1.9375 -2.078125 Z M 2.921875 -4.6875 "/>
</g>
<g id="glyph-0-7">
<path d="M 5.171875 -4.578125 C 5.171875 -4.78125 5.171875 -5.171875 5.96875 -5.171875 L 5.96875 -5.4375 C 5.609375 -5.40625 5.25 -5.40625 5.046875 -5.40625 C 4.8125 -5.40625 4.46875 -5.40625 4.109375 -5.4375 L 4.109375 -5.171875 C 4.90625 -5.171875 4.90625 -4.78125 4.90625 -4.578125 L 4.90625 -1.84375 C 4.90625 -0.75 4.09375 -0.09375 3.28125 -0.09375 C 2.859375 -0.09375 1.890625 -0.34375 1.890625 -1.796875 L 1.890625 -4.78125 C 1.890625 -5.078125 1.90625 -5.171875 2.515625 -5.171875 L 2.6875 -5.171875 L 2.6875 -5.4375 C 2.015625 -5.40625 2 -5.40625 1.515625 -5.40625 C 1.046875 -5.40625 1.03125 -5.40625 0.34375 -5.4375 L 0.34375 -5.171875 L 0.53125 -5.171875 C 1.140625 -5.171875 1.15625 -5.078125 1.15625 -4.78125 L 1.15625 -1.828125 C 1.15625 -0.6875 2.140625 0.171875 3.265625 0.171875 C 4.328125 0.171875 5.171875 -0.71875 5.171875 -1.8125 Z M 5.171875 -4.578125 "/>
</g>
<g id="glyph-0-8">
<path d="M 5.171875 -4.78125 C 5.171875 -5.078125 5.1875 -5.171875 5.796875 -5.171875 L 5.96875 -5.171875 L 5.96875 -5.4375 C 5.296875 -5.40625 5.28125 -5.40625 4.796875 -5.40625 C 4.328125 -5.40625 4.3125 -5.40625 3.640625 -5.4375 L 3.640625 -5.171875 L 3.8125 -5.171875 C 4.421875 -5.171875 4.4375 -5.078125 4.4375 -4.78125 L 4.4375 -2.953125 L 1.890625 -2.953125 L 1.890625 -4.78125 C 1.890625 -5.078125 1.90625 -5.171875 2.515625 -5.171875 L 2.6875 -5.171875 L 2.6875 -5.4375 C 2.015625 -5.40625 2 -5.40625 1.515625 -5.40625 C 1.046875 -5.40625 1.03125 -5.40625 0.34375 -5.4375 L 0.34375 -5.171875 L 0.53125 -5.171875 C 1.140625 -5.171875 1.15625 -5.078125 1.15625 -4.78125 L 1.15625 -0.640625 C 1.15625 -0.34375 1.140625 -0.265625 0.53125 -0.265625 L 0.34375 -0.265625 L 0.34375 0 C 1.03125 -0.03125 1.046875 -0.03125 1.515625 -0.03125 C 2 -0.03125 2.015625 -0.03125 2.6875 0 L 2.6875 -0.265625 L 2.515625 -0.265625 C 1.90625 -0.265625 1.890625 -0.34375 1.890625 -0.640625 L 1.890625 -2.703125 L 4.4375 -2.703125 L 4.4375 -0.640625 C 4.4375 -0.34375 4.421875 -0.265625 3.8125 -0.265625 L 3.640625 -0.265625 L 3.640625 0 C 4.3125 -0.03125 4.328125 -0.03125 4.796875 -0.03125 C 5.28125 -0.03125 5.296875 -0.03125 5.96875 0 L 5.96875 -0.265625 L 5.796875 -0.265625 C 5.1875 -0.265625 5.171875 -0.34375 5.171875 -0.640625 Z M 5.171875 -4.78125 "/>
</g>
<g id="glyph-0-9">
<path d="M 5.5 -2.0625 L 5.25 -2.0625 C 5.046875 -0.875 4.890625 -0.265625 3.453125 -0.265625 L 2.265625 -0.265625 C 1.90625 -0.265625 1.890625 -0.3125 1.890625 -0.59375 L 1.890625 -2.6875 L 2.65625 -2.6875 C 3.4375 -2.6875 3.5625 -2.4375 3.5625 -1.75 L 3.796875 -1.75 L 3.796875 -3.875 L 3.5625 -3.875 C 3.5625 -3.1875 3.4375 -2.9375 2.65625 -2.9375 L 1.890625 -2.9375 L 1.890625 -4.8125 C 1.890625 -5.09375 1.90625 -5.140625 2.265625 -5.140625 L 3.390625 -5.140625 C 4.71875 -5.140625 4.890625 -4.671875 5.03125 -3.609375 L 5.265625 -3.609375 L 5.046875 -5.40625 L 0.34375 -5.40625 L 0.34375 -5.140625 L 0.53125 -5.140625 C 1.140625 -5.140625 1.15625 -5.0625 1.15625 -4.765625 L 1.15625 -0.640625 C 1.15625 -0.34375 1.140625 -0.265625 0.53125 -0.265625 L 0.34375 -0.265625 L 0.34375 0 L 5.15625 0 Z M 5.5 -2.0625 "/>
</g>
<g id="glyph-1-0">
<path d="M 9.171875 -2.046875 C 9.171875 -2.15625 9.0625 -2.21875 9.015625 -2.21875 C 8.671875 -2.21875 8.25 -1.296875 6.234375 -1.296875 C 3.71875 -1.296875 3 -2.84375 3 -4.984375 C 3 -7.125 3.765625 -8.671875 6.125 -8.671875 C 7.390625 -8.671875 8.0625 -8.171875 8.453125 -7.859375 C 8.546875 -7.78125 8.578125 -7.71875 8.6875 -7.71875 C 8.734375 -7.71875 8.8125 -7.796875 8.828125 -7.859375 L 9.109375 -9.4375 C 9.125 -9.5 9.109375 -9.5625 9 -9.59375 C 8.15625 -9.921875 7.28125 -10.109375 6.15625 -10.109375 C 2.671875 -10.109375 0.875 -8.40625 0.875 -5 C 0.875 -1.484375 2.6875 0.140625 6.171875 0.140625 C 7.390625 0.140625 8.15625 -0.03125 9.203125 -0.671875 C 9.3125 -0.75 9.28125 -0.84375 9.28125 -0.84375 Z M 9.171875 -2.046875 "/>
</g>
<g id="glyph-1-1">
<path d="M 3.40625 -3.84375 L 5.59375 -3.84375 C 7.84375 -3.84375 9.1875 -4.78125 9.1875 -6.84375 C 9.1875 -9.015625 7.78125 -9.9375 5.578125 -9.9375 L 1.984375 -9.9375 C 1.46875 -9.9375 1.296875 -9.78125 1.296875 -9.25 L 1.296875 -0.6875 C 1.296875 -0.171875 1.46875 0 1.984375 0 L 2.71875 0 C 3.265625 0 3.40625 -0.1875 3.40625 -0.6875 Z M 5.125 -8.71875 C 7 -8.71875 7.1875 -7.859375 7.1875 -6.84375 C 7.1875 -5.890625 7.03125 -4.96875 5.109375 -4.96875 L 3.359375 -4.96875 L 3.359375 -8.71875 Z M 5.125 -8.71875 "/>
</g>
<g id="glyph-1-2">
<path d="M 9.625 -9.25 C 9.625 -9.71875 9.53125 -9.9375 8.9375 -9.9375 L 8.375 -9.9375 C 7.828125 -9.9375 7.6875 -9.75 7.6875 -9.25 L 7.6875 -3.25 C 7.6875 -1.84375 7.265625 -0.921875 5.515625 -0.921875 C 3.859375 -0.921875 3.40625 -1.765625 3.40625 -3.234375 L 3.40625 -9.25 C 3.40625 -9.71875 3.3125 -9.9375 2.71875 -9.9375 L 1.984375 -9.9375 C 1.46875 -9.9375 1.296875 -9.78125 1.296875 -9.25 L 1.296875 -3.296875 C 1.296875 -0.265625 3.6875 0.3125 5.5 0.3125 C 7.140625 0.3125 9.625 -0.171875 9.625 -3.28125 Z M 9.625 -9.25 "/>
</g>
<g id="glyph-1-3">
<path d="M 9.453125 -4.453125 C 9.453125 -4.515625 9.40625 -4.640625 9.28125 -4.640625 L 6.34375 -4.640625 C 6.234375 -4.640625 6.125 -4.609375 6.125 -4.4375 L 6.125 -3.421875 C 6.125 -3.34375 6.203125 -3.28125 6.296875 -3.28125 L 7.5 -3.28125 L 7.5 -1.453125 C 7.359375 -1.359375 6.40625 -1.28125 6.1875 -1.28125 C 3.78125 -1.28125 3 -2.78125 3 -4.984375 C 3 -7.125 3.765625 -8.671875 6.109375 -8.671875 C 7.328125 -8.671875 7.90625 -8.375 8.75 -7.578125 C 8.796875 -7.53125 8.84375 -7.515625 8.890625 -7.515625 C 8.953125 -7.515625 9.03125 -7.578125 9.0625 -7.703125 L 9.3125 -9.171875 C 9.328125 -9.234375 9.34375 -9.328125 9.21875 -9.40625 C 8.78125 -9.625 7.71875 -10.09375 6.1875 -10.09375 C 2.390625 -10.09375 0.890625 -8.171875 0.890625 -4.984375 C 0.890625 -1.453125 2.765625 0.140625 6.109375 0.140625 C 7.625 0.140625 9.0625 -0.328125 9.453125 -0.65625 Z M 9.453125 -4.453125 "/>
</g>
</g>
<clipPath id="clip-0">
<path clip-rule="nonzero" d="M 0.191406 8 L 171 8 L 171 136 L 0.191406 136 Z M 0.191406 8 "/>
</clipPath>
<clipPath id="clip-1">
<path clip-rule="nonzero" d="M 0.191406 8 L 171 8 L 171 137 L 0.191406 137 Z M 0.191406 8 "/>
</clipPath>
</defs>
<g clip-path="url(#clip-0)">
<path fill-rule="nonzero" fill="rgb(94.999695%, 94.999695%, 94.999695%)" fill-opacity="1" d="M 0.65625 135.972656 L 170.496094 135.972656 L 170.496094 8.59375 L 0.65625 8.59375 Z M 0.65625 135.972656 "/>
</g>
<g clip-path="url(#clip-1)">
<path fill="none" stroke-width="0.3985" stroke-linecap="butt" stroke-linejoin="miter" stroke="rgb(29.998779%, 29.998779%, 29.998779%)" stroke-opacity="1" stroke-miterlimit="10" d="M -85.041131 -63.781624 L 85.042241 -63.781624 L 85.042241 63.779928 L -85.041131 63.779928 Z M -85.041131 -63.781624 " transform="matrix(0.998568, 0, 0, -0.998568, 85.575618, 72.282356)"/>
</g>
<path fill-rule="nonzero" fill="rgb(70.001221%, 90.351868%, 98.118591%)" fill-opacity="1" stroke-width="0.79701" stroke-linecap="butt" stroke-linejoin="miter" stroke="rgb(39.99939%, 39.99939%, 39.99939%)" stroke-opacity="1" stroke-miterlimit="10" d="M -79.173355 -10.118851 L 11.53856 -10.118851 L 11.53856 57.912151 L -79.173355 57.912151 Z M -79.173355 -10.118851 " transform="matrix(0.998568, 0, 0, -0.998568, 85.575618, 72.282356)"/>
<g fill="rgb(0%, 0%, 0%)" fill-opacity="1">
<use xlink:href="#glyph-0-0" x="30.322843" y="51.140671"/>
<use xlink:href="#glyph-0-1" x="36.430341" y="51.140671"/>
<use xlink:href="#glyph-0-2" x="43.007401" y="51.140671"/>
<use xlink:href="#glyph-0-3" x="49.340925" y="51.140671"/>
<use xlink:href="#glyph-0-4" x="55.448422" y="51.140671"/>
</g>
<g fill="rgb(0%, 0%, 0%)" fill-opacity="1">
<use xlink:href="#glyph-0-1" x="61.430172" y="51.140671"/>
<use xlink:href="#glyph-0-5" x="68.007232" y="51.140671"/>
</g>
<path fill-rule="nonzero" fill="rgb(64.99939%, 100%, 64.99939%)" fill-opacity="1" stroke-width="0.79701" stroke-linecap="butt" stroke-linejoin="miter" stroke="rgb(39.99939%, 39.99939%, 39.99939%)" stroke-opacity="1" stroke-miterlimit="10" d="M 14.37074 26.730786 L 45.556016 26.730786 L 45.556016 57.912151 L 14.37074 57.912151 Z M 14.37074 26.730786 " transform="matrix(0.998568, 0, 0, -0.998568, 85.575618, 72.282356)"/>
<g fill="rgb(0%, 0%, 0%)" fill-opacity="1">
<use xlink:href="#glyph-0-6" x="106.521584" y="32.742052"/>
<use xlink:href="#glyph-0-5" x="112.855108" y="32.742052"/>
<use xlink:href="#glyph-0-7" x="118.136494" y="32.742052"/>
</g>
<path fill-rule="nonzero" fill="rgb(64.99939%, 100%, 64.99939%)" fill-opacity="1" stroke-width="0.79701" stroke-linecap="butt" stroke-linejoin="miter" stroke="rgb(39.99939%, 39.99939%, 39.99939%)" stroke-opacity="1" stroke-miterlimit="10" d="M 48.388197 26.730786 L 79.569561 26.730786 L 79.569561 57.912151 L 48.388197 57.912151 Z M 48.388197 26.730786 " transform="matrix(0.998568, 0, 0, -0.998568, 85.575618, 72.282356)"/>
<g fill="rgb(0%, 0%, 0%)" fill-opacity="1">
<use xlink:href="#glyph-0-6" x="140.487881" y="32.742052"/>
<use xlink:href="#glyph-0-5" x="146.821405" y="32.742052"/>
<use xlink:href="#glyph-0-7" x="152.10279" y="32.742052"/>
</g>
<path fill-rule="nonzero" fill="rgb(64.99939%, 100%, 64.99939%)" fill-opacity="1" stroke-width="0.79701" stroke-linecap="butt" stroke-linejoin="miter" stroke="rgb(39.99939%, 39.99939%, 39.99939%)" stroke-opacity="1" stroke-miterlimit="10" d="M 14.37074 -10.118851 L 45.556016 -10.118851 L 45.556016 21.062514 L 14.37074 21.062514 Z M 14.37074 -10.118851 " transform="matrix(0.998568, 0, 0, -0.998568, 85.575618, 72.282356)"/>
<g fill="rgb(0%, 0%, 0%)" fill-opacity="1">
<use xlink:href="#glyph-0-6" x="106.521584" y="69.53929"/>
<use xlink:href="#glyph-0-5" x="112.855108" y="69.53929"/>
<use xlink:href="#glyph-0-7" x="118.136494" y="69.53929"/>
</g>
<path fill-rule="nonzero" fill="rgb(64.99939%, 100%, 64.99939%)" fill-opacity="1" stroke-width="0.79701" stroke-linecap="butt" stroke-linejoin="miter" stroke="rgb(39.99939%, 39.99939%, 39.99939%)" stroke-opacity="1" stroke-miterlimit="10" d="M 48.388197 -10.118851 L 79.569561 -10.118851 L 79.569561 21.062514 L 48.388197 21.062514 Z M 48.388197 -10.118851 " transform="matrix(0.998568, 0, 0, -0.998568, 85.575618, 72.282356)"/>
<g fill="rgb(0%, 0%, 0%)" fill-opacity="1">
<use xlink:href="#glyph-0-6" x="140.487881" y="69.53929"/>
<use xlink:href="#glyph-0-5" x="146.821405" y="69.53929"/>
<use xlink:href="#glyph-0-7" x="152.10279" y="69.53929"/>
</g>
<path fill-rule="nonzero" fill="rgb(100%, 69.999695%, 69.999695%)" fill-opacity="1" stroke-width="0.79701" stroke-linecap="butt" stroke-linejoin="miter" stroke="rgb(39.99939%, 39.99939%, 39.99939%)" stroke-opacity="1" stroke-miterlimit="10" d="M -79.372859 -57.909935 L 79.370057 -57.909935 L 79.370057 -15.392026 L -79.372859 -15.392026 Z M -79.372859 -57.909935 " transform="matrix(0.998568, 0, 0, -0.998568, 85.575618, 72.282356)"/>
<g fill="rgb(0%, 0%, 0%)" fill-opacity="1">
<use xlink:href="#glyph-0-0" x="70.376412" y="111.59998"/>
<use xlink:href="#glyph-0-6" x="76.483909" y="111.59998"/>
</g>
<g fill="rgb(0%, 0%, 0%)" fill-opacity="1">
<use xlink:href="#glyph-0-0" x="82.586631" y="111.59998"/>
</g>
<g fill="rgb(0%, 0%, 0%)" fill-opacity="1">
<use xlink:href="#glyph-0-8" x="88.68617" y="111.59998"/>
</g>
<g fill="rgb(0%, 0%, 0%)" fill-opacity="1">
<use xlink:href="#glyph-0-9" x="95.027653" y="111.59998"/>
</g>
<g fill="rgb(39.99939%, 39.99939%, 59.999084%)" fill-opacity="1">
<use xlink:href="#glyph-1-0" x="70.0359" y="163.785153"/>
<use xlink:href="#glyph-1-1" x="80.103973" y="163.785153"/>
<use xlink:href="#glyph-1-2" x="90.172046" y="163.785153"/>
</g>
<path fill-rule="nonzero" fill="rgb(94.999695%, 94.999695%, 94.999695%)" fill-opacity="1" stroke-width="0.3985" stroke-linecap="butt" stroke-linejoin="miter" stroke="rgb(29.998779%, 29.998779%, 29.998779%)" stroke-opacity="1" stroke-miterlimit="10" d="M 106.29924 -63.781624 L 290.555248 -63.781624 L 290.555248 63.779928 L 106.29924 63.779928 Z M 106.29924 -63.781624 " transform="matrix(0.998568, 0, 0, -0.998568, 85.575618, 72.282356)"/>
<path fill-rule="nonzero" fill="rgb(70.001221%, 90.351868%, 98.118591%)" fill-opacity="1" stroke-width="0.79701" stroke-linecap="butt" stroke-linejoin="miter" stroke="rgb(39.99939%, 39.99939%, 39.99939%)" stroke-opacity="1" stroke-miterlimit="10" d="M 110.750926 53.659969 L 120.67138 53.659969 L 120.67138 59.328241 L 110.750926 59.328241 Z M 110.750926 53.659969 " transform="matrix(0.998568, 0, 0, -0.998568, 85.575618, 72.282356)"/>
<path fill-rule="nonzero" fill="rgb(100%, 69.999695%, 69.999695%)" fill-opacity="1" stroke-width="0.79701" stroke-linecap="butt" stroke-linejoin="miter" stroke="rgb(39.99939%, 39.99939%, 39.99939%)" stroke-opacity="1" stroke-miterlimit="10" d="M 110.750926 46.571695 L 120.67138 46.571695 L 120.67138 52.243879 L 110.750926 52.243879 Z M 110.750926 46.571695 " transform="matrix(0.998568, 0, 0, -0.998568, 85.575618, 72.282356)"/>
<path fill-rule="nonzero" fill="rgb(70.001221%, 90.351868%, 98.118591%)" fill-opacity="1" stroke-width="0.79701" stroke-linecap="butt" stroke-linejoin="miter" stroke="rgb(39.99939%, 39.99939%, 39.99939%)" stroke-opacity="1" stroke-miterlimit="10" d="M 110.750926 39.487333 L 120.67138 39.487333 L 120.67138 45.155605 L 110.750926 45.155605 Z M 110.750926 39.487333 " transform="matrix(0.998568, 0, 0, -0.998568, 85.575618, 72.282356)"/>
<path fill-rule="nonzero" fill="rgb(100%, 69.999695%, 69.999695%)" fill-opacity="1" stroke-width="0.79701" stroke-linecap="butt" stroke-linejoin="miter" stroke="rgb(39.99939%, 39.99939%, 39.99939%)" stroke-opacity="1" stroke-miterlimit="10" d="M 110.750926 32.399058 L 120.67138 32.399058 L 120.67138 38.067331 L 110.750926 38.067331 Z M 110.750926 32.399058 " transform="matrix(0.998568, 0, 0, -0.998568, 85.575618, 72.282356)"/>
<path fill-rule="nonzero" fill="rgb(70.001221%, 90.351868%, 98.118591%)" fill-opacity="1" stroke-width="0.79701" stroke-linecap="butt" stroke-linejoin="miter" stroke="rgb(39.99939%, 39.99939%, 39.99939%)" stroke-opacity="1" stroke-miterlimit="10" d="M 110.750926 25.314696 L 120.67138 25.314696 L 120.67138 30.982968 L 110.750926 30.982968 Z M 110.750926 25.314696 " transform="matrix(0.998568, 0, 0, -0.998568, 85.575618, 72.282356)"/>
<path fill-rule="nonzero" fill="rgb(100%, 69.999695%, 69.999695%)" fill-opacity="1" stroke-width="0.79701" stroke-linecap="butt" stroke-linejoin="miter" stroke="rgb(39.99939%, 39.99939%, 39.99939%)" stroke-opacity="1" stroke-miterlimit="10" d="M 110.750926 18.226422 L 120.67138 18.226422 L 120.67138 23.894694 L 110.750926 23.894694 Z M 110.750926 18.226422 " transform="matrix(0.998568, 0, 0, -0.998568, 85.575618, 72.282356)"/>
<path fill-rule="nonzero" fill="rgb(70.001221%, 90.351868%, 98.118591%)" fill-opacity="1" stroke-width="0.79701" stroke-linecap="butt" stroke-linejoin="miter" stroke="rgb(39.99939%, 39.99939%, 39.99939%)" stroke-opacity="1" stroke-miterlimit="10" d="M 110.750926 11.138148 L 120.67138 11.138148 L 120.67138 16.810332 L 110.750926 16.810332 Z M 110.750926 11.138148 " transform="matrix(0.998568, 0, 0, -0.998568, 85.575618, 72.282356)"/>
<path fill-rule="nonzero" fill="rgb(100%, 69.999695%, 69.999695%)" fill-opacity="1" stroke-width="0.79701" stroke-linecap="butt" stroke-linejoin="miter" stroke="rgb(39.99939%, 39.99939%, 39.99939%)" stroke-opacity="1" stroke-miterlimit="10" d="M 110.750926 4.053786 L 120.67138 4.053786 L 120.67138 9.722058 L 110.750926 9.722058 Z M 110.750926 4.053786 " transform="matrix(0.998568, 0, 0, -0.998568, 85.575618, 72.282356)"/>
<path fill-rule="nonzero" fill="rgb(70.001221%, 90.351868%, 98.118591%)" fill-opacity="1" stroke-width="0.79701" stroke-linecap="butt" stroke-linejoin="miter" stroke="rgb(39.99939%, 39.99939%, 39.99939%)" stroke-opacity="1" stroke-miterlimit="10" d="M 110.750926 -3.034488 L 120.67138 -3.034488 L 120.67138 2.633784 L 110.750926 2.633784 Z M 110.750926 -3.034488 " transform="matrix(0.998568, 0, 0, -0.998568, 85.575618, 72.282356)"/>
<path fill-rule="nonzero" fill="rgb(100%, 69.999695%, 69.999695%)" fill-opacity="1" stroke-width="0.79701" stroke-linecap="butt" stroke-linejoin="miter" stroke="rgb(39.99939%, 39.99939%, 39.99939%)" stroke-opacity="1" stroke-miterlimit="10" d="M 110.750926 -10.118851 L 120.67138 -10.118851 L 120.67138 -4.450579 L 110.750926 -4.450579 Z M 110.750926 -10.118851 " transform="matrix(0.998568, 0, 0, -0.998568, 85.575618, 72.282356)"/>
<path fill-rule="nonzero" fill="rgb(70.001221%, 90.351868%, 98.118591%)" fill-opacity="1" stroke-width="0.79701" stroke-linecap="butt" stroke-linejoin="miter" stroke="rgb(39.99939%, 39.99939%, 39.99939%)" stroke-opacity="1" stroke-miterlimit="10" d="M 110.750926 -17.207125 L 120.67138 -17.207125 L 120.67138 -11.538853 L 110.750926 -11.538853 Z M 110.750926 -17.207125 " transform="matrix(0.998568, 0, 0, -0.998568, 85.575618, 72.282356)"/>
<path fill-rule="nonzero" fill="rgb(100%, 69.999695%, 69.999695%)" fill-opacity="1" stroke-width="0.79701" stroke-linecap="butt" stroke-linejoin="miter" stroke="rgb(39.99939%, 39.99939%, 39.99939%)" stroke-opacity="1" stroke-miterlimit="10" d="M 110.750926 -24.295399 L 120.67138 -24.295399 L 120.67138 -18.623215 L 110.750926 -18.623215 Z M 110.750926 -24.295399 " transform="matrix(0.998568, 0, 0, -0.998568, 85.575618, 72.282356)"/>
<path fill-rule="nonzero" fill="rgb(70.001221%, 90.351868%, 98.118591%)" fill-opacity="1" stroke-width="0.79701" stroke-linecap="butt" stroke-linejoin="miter" stroke="rgb(39.99939%, 39.99939%, 39.99939%)" stroke-opacity="1" stroke-miterlimit="10" d="M 110.750926 -31.379761 L 120.67138 -31.379761 L 120.67138 -25.711489 L 110.750926 -25.711489 Z M 110.750926 -31.379761 " transform="matrix(0.998568, 0, 0, -0.998568, 85.575618, 72.282356)"/>
<path fill-rule="nonzero" fill="rgb(100%, 69.999695%, 69.999695%)" fill-opacity="1" stroke-width="0.79701" stroke-linecap="butt" stroke-linejoin="miter" stroke="rgb(39.99939%, 39.99939%, 39.99939%)" stroke-opacity="1" stroke-miterlimit="10" d="M 110.750926 -38.468035 L 120.67138 -38.468035 L 120.67138 -32.799763 L 110.750926 -32.799763 Z M 110.750926 -38.468035 " transform="matrix(0.998568, 0, 0, -0.998568, 85.575618, 72.282356)"/>
<path fill-rule="nonzero" fill="rgb(70.001221%, 90.351868%, 98.118591%)" fill-opacity="1" stroke-width="0.79701" stroke-linecap="butt" stroke-linejoin="miter" stroke="rgb(39.99939%, 39.99939%, 39.99939%)" stroke-opacity="1" stroke-miterlimit="10" d="M 110.750926 -45.552398 L 120.67138 -45.552398 L 120.67138 -39.884125 L 110.750926 -39.884125 Z M 110.750926 -45.552398 " transform="matrix(0.998568, 0, 0, -0.998568, 85.575618, 72.282356)"/>
<path fill-rule="nonzero" fill="rgb(100%, 69.999695%, 69.999695%)" fill-opacity="1" stroke-width="0.79701" stroke-linecap="butt" stroke-linejoin="miter" stroke="rgb(39.99939%, 39.99939%, 39.99939%)" stroke-opacity="1" stroke-miterlimit="10" d="M 110.750926 -52.640672 L 120.67138 -52.640672 L 120.67138 -46.9724 L 110.750926 -46.9724 Z M 110.750926 -52.640672 " transform="matrix(0.998568, 0, 0, -0.998568, 85.575618, 72.282356)"/>
<path fill-rule="nonzero" fill="rgb(64.99939%, 100%, 64.99939%)" fill-opacity="1" stroke-width="0.79701" stroke-linecap="butt" stroke-linejoin="miter" stroke="rgb(39.99939%, 39.99939%, 39.99939%)" stroke-opacity="1" stroke-miterlimit="10" d="M 123.507472 47.991697 L 134.847929 47.991697 L 134.847929 59.328241 L 123.507472 59.328241 Z M 123.507472 47.991697 " transform="matrix(0.998568, 0, 0, -0.998568, 85.575618, 72.282356)"/>
<path fill-rule="nonzero" fill="rgb(64.99939%, 100%, 64.99939%)" fill-opacity="1" stroke-width="0.79701" stroke-linecap="butt" stroke-linejoin="miter" stroke="rgb(39.99939%, 39.99939%, 39.99939%)" stroke-opacity="1" stroke-miterlimit="10" d="M 136.549584 47.991697 L 147.886128 47.991697 L 147.886128 59.328241 L 136.549584 59.328241 Z M 136.549584 47.991697 " transform="matrix(0.998568, 0, 0, -0.998568, 85.575618, 72.282356)"/>
<path fill-rule="nonzero" fill="rgb(64.99939%, 100%, 64.99939%)" fill-opacity="1" stroke-width="0.79701" stroke-linecap="butt" stroke-linejoin="miter" stroke="rgb(39.99939%, 39.99939%, 39.99939%)" stroke-opacity="1" stroke-miterlimit="10" d="M 149.587783 47.991697 L 160.924328 47.991697 L 160.924328 59.328241 L 149.587783 59.328241 Z M 149.587783 47.991697 " transform="matrix(0.998568, 0, 0, -0.998568, 85.575618, 72.282356)"/>
<path fill-rule="nonzero" fill="rgb(64.99939%, 100%, 64.99939%)" fill-opacity="1" stroke-width="0.79701" stroke-linecap="butt" stroke-linejoin="miter" stroke="rgb(39.99939%, 39.99939%, 39.99939%)" stroke-opacity="1" stroke-miterlimit="10" d="M 162.625983 47.991697 L 173.966439 47.991697 L 173.966439 59.328241 L 162.625983 59.328241 Z M 162.625983 47.991697 " transform="matrix(0.998568, 0, 0, -0.998568, 85.575618, 72.282356)"/>
<path fill-rule="nonzero" fill="rgb(64.99939%, 100%, 64.99939%)" fill-opacity="1" stroke-width="0.79701" stroke-linecap="butt" stroke-linejoin="miter" stroke="rgb(39.99939%, 39.99939%, 39.99939%)" stroke-opacity="1" stroke-miterlimit="10" d="M 175.668094 47.991697 L 187.004639 47.991697 L 187.004639 59.328241 L 175.668094 59.328241 Z M 175.668094 47.991697 " transform="matrix(0.998568, 0, 0, -0.998568, 85.575618, 72.282356)"/>
<path fill-rule="nonzero" fill="rgb(64.99939%, 100%, 64.99939%)" fill-opacity="1" stroke-width="0.79701" stroke-linecap="butt" stroke-linejoin="miter" stroke="rgb(39.99939%, 39.99939%, 39.99939%)" stroke-opacity="1" stroke-miterlimit="10" d="M 188.706294 47.991697 L 200.04675 47.991697 L 200.04675 59.328241 L 188.706294 59.328241 Z M 188.706294 47.991697 " transform="matrix(0.998568, 0, 0, -0.998568, 85.575618, 72.282356)"/>
<path fill-rule="nonzero" fill="rgb(64.99939%, 100%, 64.99939%)" fill-opacity="1" stroke-width="0.79701" stroke-linecap="butt" stroke-linejoin="miter" stroke="rgb(39.99939%, 39.99939%, 39.99939%)" stroke-opacity="1" stroke-miterlimit="10" d="M 201.744494 47.991697 L 213.08495 47.991697 L 213.08495 59.328241 L 201.744494 59.328241 Z M 201.744494 47.991697 " transform="matrix(0.998568, 0, 0, -0.998568, 85.575618, 72.282356)"/>
<path fill-rule="nonzero" fill="rgb(64.99939%, 100%, 64.99939%)" fill-opacity="1" stroke-width="0.79701" stroke-linecap="butt" stroke-linejoin="miter" stroke="rgb(39.99939%, 39.99939%, 39.99939%)" stroke-opacity="1" stroke-miterlimit="10" d="M 214.786605 47.991697 L 226.123149 47.991697 L 226.123149 59.328241 L 214.786605 59.328241 Z M 214.786605 47.991697 " transform="matrix(0.998568, 0, 0, -0.998568, 85.575618, 72.282356)"/>
<path fill-rule="nonzero" fill="rgb(64.99939%, 100%, 64.99939%)" fill-opacity="1" stroke-width="0.79701" stroke-linecap="butt" stroke-linejoin="miter" stroke="rgb(39.99939%, 39.99939%, 39.99939%)" stroke-opacity="1" stroke-miterlimit="10" d="M 227.824805 47.991697 L 239.165261 47.991697 L 239.165261 59.328241 L 227.824805 59.328241 Z M 227.824805 47.991697 " transform="matrix(0.998568, 0, 0, -0.998568, 85.575618, 72.282356)"/>
<path fill-rule="nonzero" fill="rgb(64.99939%, 100%, 64.99939%)" fill-opacity="1" stroke-width="0.79701" stroke-linecap="butt" stroke-linejoin="miter" stroke="rgb(39.99939%, 39.99939%, 39.99939%)" stroke-opacity="1" stroke-miterlimit="10" d="M 240.866916 47.991697 L 252.20346 47.991697 L 252.20346 59.328241 L 240.866916 59.328241 Z M 240.866916 47.991697 " transform="matrix(0.998568, 0, 0, -0.998568, 85.575618, 72.282356)"/>
<path fill-rule="nonzero" fill="rgb(64.99939%, 100%, 64.99939%)" fill-opacity="1" stroke-width="0.79701" stroke-linecap="butt" stroke-linejoin="miter" stroke="rgb(39.99939%, 39.99939%, 39.99939%)" stroke-opacity="1" stroke-miterlimit="10" d="M 253.905116 47.991697 L 265.245572 47.991697 L 265.245572 59.328241 L 253.905116 59.328241 Z M 253.905116 47.991697 " transform="matrix(0.998568, 0, 0, -0.998568, 85.575618, 72.282356)"/>
<path fill-rule="nonzero" fill="rgb(64.99939%, 100%, 64.99939%)" fill-opacity="1" stroke-width="0.79701" stroke-linecap="butt" stroke-linejoin="miter" stroke="rgb(39.99939%, 39.99939%, 39.99939%)" stroke-opacity="1" stroke-miterlimit="10" d="M 266.943315 47.991697 L 278.283771 47.991697 L 278.283771 59.328241 L 266.943315 59.328241 Z M 266.943315 47.991697 " transform="matrix(0.998568, 0, 0, -0.998568, 85.575618, 72.282356)"/>
<path fill-rule="nonzero" fill="rgb(64.99939%, 100%, 64.99939%)" fill-opacity="1" stroke-width="0.79701" stroke-linecap="butt" stroke-linejoin="miter" stroke="rgb(39.99939%, 39.99939%, 39.99939%)" stroke-opacity="1" stroke-miterlimit="10" d="M 123.507472 33.81906 L 134.847929 33.81906 L 134.847929 45.155605 L 123.507472 45.155605 Z M 123.507472 33.81906 " transform="matrix(0.998568, 0, 0, -0.998568, 85.575618, 72.282356)"/>
<path fill-rule="nonzero" fill="rgb(64.99939%, 100%, 64.99939%)" fill-opacity="1" stroke-width="0.79701" stroke-linecap="butt" stroke-linejoin="miter" stroke="rgb(39.99939%, 39.99939%, 39.99939%)" stroke-opacity="1" stroke-miterlimit="10" d="M 136.549584 33.81906 L 147.886128 33.81906 L 147.886128 45.155605 L 136.549584 45.155605 Z M 136.549584 33.81906 " transform="matrix(0.998568, 0, 0, -0.998568, 85.575618, 72.282356)"/>
<path fill-rule="nonzero" fill="rgb(64.99939%, 100%, 64.99939%)" fill-opacity="1" stroke-width="0.79701" stroke-linecap="butt" stroke-linejoin="miter" stroke="rgb(39.99939%, 39.99939%, 39.99939%)" stroke-opacity="1" stroke-miterlimit="10" d="M 149.587783 33.81906 L 160.924328 33.81906 L 160.924328 45.155605 L 149.587783 45.155605 Z M 149.587783 33.81906 " transform="matrix(0.998568, 0, 0, -0.998568, 85.575618, 72.282356)"/>
<path fill-rule="nonzero" fill="rgb(64.99939%, 100%, 64.99939%)" fill-opacity="1" stroke-width="0.79701" stroke-linecap="butt" stroke-linejoin="miter" stroke="rgb(39.99939%, 39.99939%, 39.99939%)" stroke-opacity="1" stroke-miterlimit="10" d="M 162.625983 33.81906 L 173.966439 33.81906 L 173.966439 45.155605 L 162.625983 45.155605 Z M 162.625983 33.81906 " transform="matrix(0.998568, 0, 0, -0.998568, 85.575618, 72.282356)"/>
<path fill-rule="nonzero" fill="rgb(64.99939%, 100%, 64.99939%)" fill-opacity="1" stroke-width="0.79701" stroke-linecap="butt" stroke-linejoin="miter" stroke="rgb(39.99939%, 39.99939%, 39.99939%)" stroke-opacity="1" stroke-miterlimit="10" d="M 175.668094 33.81906 L 187.004639 33.81906 L 187.004639 45.155605 L 175.668094 45.155605 Z M 175.668094 33.81906 " transform="matrix(0.998568, 0, 0, -0.998568, 85.575618, 72.282356)"/>
<path fill-rule="nonzero" fill="rgb(64.99939%, 100%, 64.99939%)" fill-opacity="1" stroke-width="0.79701" stroke-linecap="butt" stroke-linejoin="miter" stroke="rgb(39.99939%, 39.99939%, 39.99939%)" stroke-opacity="1" stroke-miterlimit="10" d="M 188.706294 33.81906 L 200.04675 33.81906 L 200.04675 45.155605 L 188.706294 45.155605 Z M 188.706294 33.81906 " transform="matrix(0.998568, 0, 0, -0.998568, 85.575618, 72.282356)"/>
<path fill-rule="nonzero" fill="rgb(64.99939%, 100%, 64.99939%)" fill-opacity="1" stroke-width="0.79701" stroke-linecap="butt" stroke-linejoin="miter" stroke="rgb(39.99939%, 39.99939%, 39.99939%)" stroke-opacity="1" stroke-miterlimit="10" d="M 201.744494 33.81906 L 213.08495 33.81906 L 213.08495 45.155605 L 201.744494 45.155605 Z M 201.744494 33.81906 " transform="matrix(0.998568, 0, 0, -0.998568, 85.575618, 72.282356)"/>
<path fill-rule="nonzero" fill="rgb(64.99939%, 100%, 64.99939%)" fill-opacity="1" stroke-width="0.79701" stroke-linecap="butt" stroke-linejoin="miter" stroke="rgb(39.99939%, 39.99939%, 39.99939%)" stroke-opacity="1" stroke-miterlimit="10" d="M 214.786605 33.81906 L 226.123149 33.81906 L 226.123149 45.155605 L 214.786605 45.155605 Z M 214.786605 33.81906 " transform="matrix(0.998568, 0, 0, -0.998568, 85.575618, 72.282356)"/>
<path fill-rule="nonzero" fill="rgb(64.99939%, 100%, 64.99939%)" fill-opacity="1" stroke-width="0.79701" stroke-linecap="butt" stroke-linejoin="miter" stroke="rgb(39.99939%, 39.99939%, 39.99939%)" stroke-opacity="1" stroke-miterlimit="10" d="M 227.824805 33.81906 L 239.165261 33.81906 L 239.165261 45.155605 L 227.824805 45.155605 Z M 227.824805 33.81906 " transform="matrix(0.998568, 0, 0, -0.998568, 85.575618, 72.282356)"/>
<path fill-rule="nonzero" fill="rgb(64.99939%, 100%, 64.99939%)" fill-opacity="1" stroke-width="0.79701" stroke-linecap="butt" stroke-linejoin="miter" stroke="rgb(39.99939%, 39.99939%, 39.99939%)" stroke-opacity="1" stroke-miterlimit="10" d="M 240.866916 33.81906 L 252.20346 33.81906 L 252.20346 45.155605 L 240.866916 45.155605 Z M 240.866916 33.81906 " transform="matrix(0.998568, 0, 0, -0.998568, 85.575618, 72.282356)"/>
<path fill-rule="nonzero" fill="rgb(64.99939%, 100%, 64.99939%)" fill-opacity="1" stroke-width="0.79701" stroke-linecap="butt" stroke-linejoin="miter" stroke="rgb(39.99939%, 39.99939%, 39.99939%)" stroke-opacity="1" stroke-miterlimit="10" d="M 253.905116 33.81906 L 265.245572 33.81906 L 265.245572 45.155605 L 253.905116 45.155605 Z M 253.905116 33.81906 " transform="matrix(0.998568, 0, 0, -0.998568, 85.575618, 72.282356)"/>
<path fill-rule="nonzero" fill="rgb(64.99939%, 100%, 64.99939%)" fill-opacity="1" stroke-width="0.79701" stroke-linecap="butt" stroke-linejoin="miter" stroke="rgb(39.99939%, 39.99939%, 39.99939%)" stroke-opacity="1" stroke-miterlimit="10" d="M 266.943315 33.81906 L 278.283771 33.81906 L 278.283771 45.155605 L 266.943315 45.155605 Z M 266.943315 33.81906 " transform="matrix(0.998568, 0, 0, -0.998568, 85.575618, 72.282356)"/>
<path fill-rule="nonzero" fill="rgb(64.99939%, 100%, 64.99939%)" fill-opacity="1" stroke-width="0.79701" stroke-linecap="butt" stroke-linejoin="miter" stroke="rgb(39.99939%, 39.99939%, 39.99939%)" stroke-opacity="1" stroke-miterlimit="10" d="M 123.507472 19.642512 L 134.847929 19.642512 L 134.847929 30.982968 L 123.507472 30.982968 Z M 123.507472 19.642512 " transform="matrix(0.998568, 0, 0, -0.998568, 85.575618, 72.282356)"/>
<path fill-rule="nonzero" fill="rgb(64.99939%, 100%, 64.99939%)" fill-opacity="1" stroke-width="0.79701" stroke-linecap="butt" stroke-linejoin="miter" stroke="rgb(39.99939%, 39.99939%, 39.99939%)" stroke-opacity="1" stroke-miterlimit="10" d="M 136.549584 19.642512 L 147.886128 19.642512 L 147.886128 30.982968 L 136.549584 30.982968 Z M 136.549584 19.642512 " transform="matrix(0.998568, 0, 0, -0.998568, 85.575618, 72.282356)"/>
<path fill-rule="nonzero" fill="rgb(64.99939%, 100%, 64.99939%)" fill-opacity="1" stroke-width="0.79701" stroke-linecap="butt" stroke-linejoin="miter" stroke="rgb(39.99939%, 39.99939%, 39.99939%)" stroke-opacity="1" stroke-miterlimit="10" d="M 149.587783 19.642512 L 160.924328 19.642512 L 160.924328 30.982968 L 149.587783 30.982968 Z M 149.587783 19.642512 " transform="matrix(0.998568, 0, 0, -0.998568, 85.575618, 72.282356)"/>
<path fill-rule="nonzero" fill="rgb(64.99939%, 100%, 64.99939%)" fill-opacity="1" stroke-width="0.79701" stroke-linecap="butt" stroke-linejoin="miter" stroke="rgb(39.99939%, 39.99939%, 39.99939%)" stroke-opacity="1" stroke-miterlimit="10" d="M 162.625983 19.642512 L 173.966439 19.642512 L 173.966439 30.982968 L 162.625983 30.982968 Z M 162.625983 19.642512 " transform="matrix(0.998568, 0, 0, -0.998568, 85.575618, 72.282356)"/>
<path fill-rule="nonzero" fill="rgb(64.99939%, 100%, 64.99939%)" fill-opacity="1" stroke-width="0.79701" stroke-linecap="butt" stroke-linejoin="miter" stroke="rgb(39.99939%, 39.99939%, 39.99939%)" stroke-opacity="1" stroke-miterlimit="10" d="M 175.668094 19.642512 L 187.004639 19.642512 L 187.004639 30.982968 L 175.668094 30.982968 Z M 175.668094 19.642512 " transform="matrix(0.998568, 0, 0, -0.998568, 85.575618, 72.282356)"/>
<path fill-rule="nonzero" fill="rgb(64.99939%, 100%, 64.99939%)" fill-opacity="1" stroke-width="0.79701" stroke-linecap="butt" stroke-linejoin="miter" stroke="rgb(39.99939%, 39.99939%, 39.99939%)" stroke-opacity="1" stroke-miterlimit="10" d="M 188.706294 19.642512 L 200.04675 19.642512 L 200.04675 30.982968 L 188.706294 30.982968 Z M 188.706294 19.642512 " transform="matrix(0.998568, 0, 0, -0.998568, 85.575618, 72.282356)"/>
<path fill-rule="nonzero" fill="rgb(64.99939%, 100%, 64.99939%)" fill-opacity="1" stroke-width="0.79701" stroke-linecap="butt" stroke-linejoin="miter" stroke="rgb(39.99939%, 39.99939%, 39.99939%)" stroke-opacity="1" stroke-miterlimit="10" d="M 201.744494 19.642512 L 213.08495 19.642512 L 213.08495 30.982968 L 201.744494 30.982968 Z M 201.744494 19.642512 " transform="matrix(0.998568, 0, 0, -0.998568, 85.575618, 72.282356)"/>
<path fill-rule="nonzero" fill="rgb(64.99939%, 100%, 64.99939%)" fill-opacity="1" stroke-width="0.79701" stroke-linecap="butt" stroke-linejoin="miter" stroke="rgb(39.99939%, 39.99939%, 39.99939%)" stroke-opacity="1" stroke-miterlimit="10" d="M 214.786605 19.642512 L 226.123149 19.642512 L 226.123149 30.982968 L 214.786605 30.982968 Z M 214.786605 19.642512 " transform="matrix(0.998568, 0, 0, -0.998568, 85.575618, 72.282356)"/>
<path fill-rule="nonzero" fill="rgb(64.99939%, 100%, 64.99939%)" fill-opacity="1" stroke-width="0.79701" stroke-linecap="butt" stroke-linejoin="miter" stroke="rgb(39.99939%, 39.99939%, 39.99939%)" stroke-opacity="1" stroke-miterlimit="10" d="M 227.824805 19.642512 L 239.165261 19.642512 L 239.165261 30.982968 L 227.824805 30.982968 Z M 227.824805 19.642512 " transform="matrix(0.998568, 0, 0, -0.998568, 85.575618, 72.282356)"/>
<path fill-rule="nonzero" fill="rgb(64.99939%, 100%, 64.99939%)" fill-opacity="1" stroke-width="0.79701" stroke-linecap="butt" stroke-linejoin="miter" stroke="rgb(39.99939%, 39.99939%, 39.99939%)" stroke-opacity="1" stroke-miterlimit="10" d="M 240.866916 19.642512 L 252.20346 19.642512 L 252.20346 30.982968 L 240.866916 30.982968 Z M 240.866916 19.642512 " transform="matrix(0.998568, 0, 0, -0.998568, 85.575618, 72.282356)"/>
<path fill-rule="nonzero" fill="rgb(64.99939%, 100%, 64.99939%)" fill-opacity="1" stroke-width="0.79701" stroke-linecap="butt" stroke-linejoin="miter" stroke="rgb(39.99939%, 39.99939%, 39.99939%)" stroke-opacity="1" stroke-miterlimit="10" d="M 253.905116 19.642512 L 265.245572 19.642512 L 265.245572 30.982968 L 253.905116 30.982968 Z M 253.905116 19.642512 " transform="matrix(0.998568, 0, 0, -0.998568, 85.575618, 72.282356)"/>
<path fill-rule="nonzero" fill="rgb(64.99939%, 100%, 64.99939%)" fill-opacity="1" stroke-width="0.79701" stroke-linecap="butt" stroke-linejoin="miter" stroke="rgb(39.99939%, 39.99939%, 39.99939%)" stroke-opacity="1" stroke-miterlimit="10" d="M 266.943315 19.642512 L 278.283771 19.642512 L 278.283771 30.982968 L 266.943315 30.982968 Z M 266.943315 19.642512 " transform="matrix(0.998568, 0, 0, -0.998568, 85.575618, 72.282356)"/>
<path fill-rule="nonzero" fill="rgb(64.99939%, 100%, 64.99939%)" fill-opacity="1" stroke-width="0.79701" stroke-linecap="butt" stroke-linejoin="miter" stroke="rgb(39.99939%, 39.99939%, 39.99939%)" stroke-opacity="1" stroke-miterlimit="10" d="M 123.507472 5.469876 L 134.847929 5.469876 L 134.847929 16.810332 L 123.507472 16.810332 Z M 123.507472 5.469876 " transform="matrix(0.998568, 0, 0, -0.998568, 85.575618, 72.282356)"/>
<path fill-rule="nonzero" fill="rgb(64.99939%, 100%, 64.99939%)" fill-opacity="1" stroke-width="0.79701" stroke-linecap="butt" stroke-linejoin="miter" stroke="rgb(39.99939%, 39.99939%, 39.99939%)" stroke-opacity="1" stroke-miterlimit="10" d="M 136.549584 5.469876 L 147.886128 5.469876 L 147.886128 16.810332 L 136.549584 16.810332 Z M 136.549584 5.469876 " transform="matrix(0.998568, 0, 0, -0.998568, 85.575618, 72.282356)"/>
<path fill-rule="nonzero" fill="rgb(64.99939%, 100%, 64.99939%)" fill-opacity="1" stroke-width="0.79701" stroke-linecap="butt" stroke-linejoin="miter" stroke="rgb(39.99939%, 39.99939%, 39.99939%)" stroke-opacity="1" stroke-miterlimit="10" d="M 149.587783 5.469876 L 160.924328 5.469876 L 160.924328 16.810332 L 149.587783 16.810332 Z M 149.587783 5.469876 " transform="matrix(0.998568, 0, 0, -0.998568, 85.575618, 72.282356)"/>
<path fill-rule="nonzero" fill="rgb(64.99939%, 100%, 64.99939%)" fill-opacity="1" stroke-width="0.79701" stroke-linecap="butt" stroke-linejoin="miter" stroke="rgb(39.99939%, 39.99939%, 39.99939%)" stroke-opacity="1" stroke-miterlimit="10" d="M 162.625983 5.469876 L 173.966439 5.469876 L 173.966439 16.810332 L 162.625983 16.810332 Z M 162.625983 5.469876 " transform="matrix(0.998568, 0, 0, -0.998568, 85.575618, 72.282356)"/>
<path fill-rule="nonzero" fill="rgb(64.99939%, 100%, 64.99939%)" fill-opacity="1" stroke-width="0.79701" stroke-linecap="butt" stroke-linejoin="miter" stroke="rgb(39.99939%, 39.99939%, 39.99939%)" stroke-opacity="1" stroke-miterlimit="10" d="M 175.668094 5.469876 L 187.004639 5.469876 L 187.004639 16.810332 L 175.668094 16.810332 Z M 175.668094 5.469876 " transform="matrix(0.998568, 0, 0, -0.998568, 85.575618, 72.282356)"/>
<path fill-rule="nonzero" fill="rgb(64.99939%, 100%, 64.99939%)" fill-opacity="1" stroke-width="0.79701" stroke-linecap="butt" stroke-linejoin="miter" stroke="rgb(39.99939%, 39.99939%, 39.99939%)" stroke-opacity="1" stroke-miterlimit="10" d="M 188.706294 5.469876 L 200.04675 5.469876 L 200.04675 16.810332 L 188.706294 16.810332 Z M 188.706294 5.469876 " transform="matrix(0.998568, 0, 0, -0.998568, 85.575618, 72.282356)"/>
<path fill-rule="nonzero" fill="rgb(64.99939%, 100%, 64.99939%)" fill-opacity="1" stroke-width="0.79701" stroke-linecap="butt" stroke-linejoin="miter" stroke="rgb(39.99939%, 39.99939%, 39.99939%)" stroke-opacity="1" stroke-miterlimit="10" d="M 201.744494 5.469876 L 213.08495 5.469876 L 213.08495 16.810332 L 201.744494 16.810332 Z M 201.744494 5.469876 " transform="matrix(0.998568, 0, 0, -0.998568, 85.575618, 72.282356)"/>
<path fill-rule="nonzero" fill="rgb(64.99939%, 100%, 64.99939%)" fill-opacity="1" stroke-width="0.79701" stroke-linecap="butt" stroke-linejoin="miter" stroke="rgb(39.99939%, 39.99939%, 39.99939%)" stroke-opacity="1" stroke-miterlimit="10" d="M 214.786605 5.469876 L 226.123149 5.469876 L 226.123149 16.810332 L 214.786605 16.810332 Z M 214.786605 5.469876 " transform="matrix(0.998568, 0, 0, -0.998568, 85.575618, 72.282356)"/>
<path fill-rule="nonzero" fill="rgb(64.99939%, 100%, 64.99939%)" fill-opacity="1" stroke-width="0.79701" stroke-linecap="butt" stroke-linejoin="miter" stroke="rgb(39.99939%, 39.99939%, 39.99939%)" stroke-opacity="1" stroke-miterlimit="10" d="M 227.824805 5.469876 L 239.165261 5.469876 L 239.165261 16.810332 L 227.824805 16.810332 Z M 227.824805 5.469876 " transform="matrix(0.998568, 0, 0, -0.998568, 85.575618, 72.282356)"/>
<path fill-rule="nonzero" fill="rgb(64.99939%, 100%, 64.99939%)" fill-opacity="1" stroke-width="0.79701" stroke-linecap="butt" stroke-linejoin="miter" stroke="rgb(39.99939%, 39.99939%, 39.99939%)" stroke-opacity="1" stroke-miterlimit="10" d="M 240.866916 5.469876 L 252.20346 5.469876 L 252.20346 16.810332 L 240.866916 16.810332 Z M 240.866916 5.469876 " transform="matrix(0.998568, 0, 0, -0.998568, 85.575618, 72.282356)"/>
<path fill-rule="nonzero" fill="rgb(64.99939%, 100%, 64.99939%)" fill-opacity="1" stroke-width="0.79701" stroke-linecap="butt" stroke-linejoin="miter" stroke="rgb(39.99939%, 39.99939%, 39.99939%)" stroke-opacity="1" stroke-miterlimit="10" d="M 253.905116 5.469876 L 265.245572 5.469876 L 265.245572 16.810332 L 253.905116 16.810332 Z M 253.905116 5.469876 " transform="matrix(0.998568, 0, 0, -0.998568, 85.575618, 72.282356)"/>
<path fill-rule="nonzero" fill="rgb(64.99939%, 100%, 64.99939%)" fill-opacity="1" stroke-width="0.79701" stroke-linecap="butt" stroke-linejoin="miter" stroke="rgb(39.99939%, 39.99939%, 39.99939%)" stroke-opacity="1" stroke-miterlimit="10" d="M 266.943315 5.469876 L 278.283771 5.469876 L 278.283771 16.810332 L 266.943315 16.810332 Z M 266.943315 5.469876 " transform="matrix(0.998568, 0, 0, -0.998568, 85.575618, 72.282356)"/>
<path fill-rule="nonzero" fill="rgb(64.99939%, 100%, 64.99939%)" fill-opacity="1" stroke-width="0.79701" stroke-linecap="butt" stroke-linejoin="miter" stroke="rgb(39.99939%, 39.99939%, 39.99939%)" stroke-opacity="1" stroke-miterlimit="10" d="M 123.507472 -8.702761 L 134.847929 -8.702761 L 134.847929 2.633784 L 123.507472 2.633784 Z M 123.507472 -8.702761 " transform="matrix(0.998568, 0, 0, -0.998568, 85.575618, 72.282356)"/>
<path fill-rule="nonzero" fill="rgb(64.99939%, 100%, 64.99939%)" fill-opacity="1" stroke-width="0.79701" stroke-linecap="butt" stroke-linejoin="miter" stroke="rgb(39.99939%, 39.99939%, 39.99939%)" stroke-opacity="1" stroke-miterlimit="10" d="M 136.549584 -8.702761 L 147.886128 -8.702761 L 147.886128 2.633784 L 136.549584 2.633784 Z M 136.549584 -8.702761 " transform="matrix(0.998568, 0, 0, -0.998568, 85.575618, 72.282356)"/>
<path fill-rule="nonzero" fill="rgb(64.99939%, 100%, 64.99939%)" fill-opacity="1" stroke-width="0.79701" stroke-linecap="butt" stroke-linejoin="miter" stroke="rgb(39.99939%, 39.99939%, 39.99939%)" stroke-opacity="1" stroke-miterlimit="10" d="M 149.587783 -8.702761 L 160.924328 -8.702761 L 160.924328 2.633784 L 149.587783 2.633784 Z M 149.587783 -8.702761 " transform="matrix(0.998568, 0, 0, -0.998568, 85.575618, 72.282356)"/>
<path fill-rule="nonzero" fill="rgb(64.99939%, 100%, 64.99939%)" fill-opacity="1" stroke-width="0.79701" stroke-linecap="butt" stroke-linejoin="miter" stroke="rgb(39.99939%, 39.99939%, 39.99939%)" stroke-opacity="1" stroke-miterlimit="10" d="M 162.625983 -8.702761 L 173.966439 -8.702761 L 173.966439 2.633784 L 162.625983 2.633784 Z M 162.625983 -8.702761 " transform="matrix(0.998568, 0, 0, -0.998568, 85.575618, 72.282356)"/>
<path fill-rule="nonzero" fill="rgb(64.99939%, 100%, 64.99939%)" fill-opacity="1" stroke-width="0.79701" stroke-linecap="butt" stroke-linejoin="miter" stroke="rgb(39.99939%, 39.99939%, 39.99939%)" stroke-opacity="1" stroke-miterlimit="10" d="M 175.668094 -8.702761 L 187.004639 -8.702761 L 187.004639 2.633784 L 175.668094 2.633784 Z M 175.668094 -8.702761 " transform="matrix(0.998568, 0, 0, -0.998568, 85.575618, 72.282356)"/>
<path fill-rule="nonzero" fill="rgb(64.99939%, 100%, 64.99939%)" fill-opacity="1" stroke-width="0.79701" stroke-linecap="butt" stroke-linejoin="miter" stroke="rgb(39.99939%, 39.99939%, 39.99939%)" stroke-opacity="1" stroke-miterlimit="10" d="M 188.706294 -8.702761 L 200.04675 -8.702761 L 200.04675 2.633784 L 188.706294 2.633784 Z M 188.706294 -8.702761 " transform="matrix(0.998568, 0, 0, -0.998568, 85.575618, 72.282356)"/>
<path fill-rule="nonzero" fill="rgb(64.99939%, 100%, 64.99939%)" fill-opacity="1" stroke-width="0.79701" stroke-linecap="butt" stroke-linejoin="miter" stroke="rgb(39.99939%, 39.99939%, 39.99939%)" stroke-opacity="1" stroke-miterlimit="10" d="M 201.744494 -8.702761 L 213.08495 -8.702761 L 213.08495 2.633784 L 201.744494 2.633784 Z M 201.744494 -8.702761 " transform="matrix(0.998568, 0, 0, -0.998568, 85.575618, 72.282356)"/>
<path fill-rule="nonzero" fill="rgb(64.99939%, 100%, 64.99939%)" fill-opacity="1" stroke-width="0.79701" stroke-linecap="butt" stroke-linejoin="miter" stroke="rgb(39.99939%, 39.99939%, 39.99939%)" stroke-opacity="1" stroke-miterlimit="10" d="M 214.786605 -8.702761 L 226.123149 -8.702761 L 226.123149 2.633784 L 214.786605 2.633784 Z M 214.786605 -8.702761 " transform="matrix(0.998568, 0, 0, -0.998568, 85.575618, 72.282356)"/>
<path fill-rule="nonzero" fill="rgb(64.99939%, 100%, 64.99939%)" fill-opacity="1" stroke-width="0.79701" stroke-linecap="butt" stroke-linejoin="miter" stroke="rgb(39.99939%, 39.99939%, 39.99939%)" stroke-opacity="1" stroke-miterlimit="10" d="M 227.824805 -8.702761 L 239.165261 -8.702761 L 239.165261 2.633784 L 227.824805 2.633784 Z M 227.824805 -8.702761 " transform="matrix(0.998568, 0, 0, -0.998568, 85.575618, 72.282356)"/>
<path fill-rule="nonzero" fill="rgb(64.99939%, 100%, 64.99939%)" fill-opacity="1" stroke-width="0.79701" stroke-linecap="butt" stroke-linejoin="miter" stroke="rgb(39.99939%, 39.99939%, 39.99939%)" stroke-opacity="1" stroke-miterlimit="10" d="M 240.866916 -8.702761 L 252.20346 -8.702761 L 252.20346 2.633784 L 240.866916 2.633784 Z M 240.866916 -8.702761 " transform="matrix(0.998568, 0, 0, -0.998568, 85.575618, 72.282356)"/>
<path fill-rule="nonzero" fill="rgb(64.99939%, 100%, 64.99939%)" fill-opacity="1" stroke-width="0.79701" stroke-linecap="butt" stroke-linejoin="miter" stroke="rgb(39.99939%, 39.99939%, 39.99939%)" stroke-opacity="1" stroke-miterlimit="10" d="M 253.905116 -8.702761 L 265.245572 -8.702761 L 265.245572 2.633784 L 253.905116 2.633784 Z M 253.905116 -8.702761 " transform="matrix(0.998568, 0, 0, -0.998568, 85.575618, 72.282356)"/>
<path fill-rule="nonzero" fill="rgb(64.99939%, 100%, 64.99939%)" fill-opacity="1" stroke-width="0.79701" stroke-linecap="butt" stroke-linejoin="miter" stroke="rgb(39.99939%, 39.99939%, 39.99939%)" stroke-opacity="1" stroke-miterlimit="10" d="M 266.943315 -8.702761 L 278.283771 -8.702761 L 278.283771 2.633784 L 266.943315 2.633784 Z M 266.943315 -8.702761 " transform="matrix(0.998568, 0, 0, -0.998568, 85.575618, 72.282356)"/>
<path fill-rule="nonzero" fill="rgb(64.99939%, 100%, 64.99939%)" fill-opacity="1" stroke-width="0.79701" stroke-linecap="butt" stroke-linejoin="miter" stroke="rgb(39.99939%, 39.99939%, 39.99939%)" stroke-opacity="1" stroke-miterlimit="10" d="M 123.507472 -22.875397 L 134.847929 -22.875397 L 134.847929 -11.538853 L 123.507472 -11.538853 Z M 123.507472 -22.875397 " transform="matrix(0.998568, 0, 0, -0.998568, 85.575618, 72.282356)"/>
<path fill-rule="nonzero" fill="rgb(64.99939%, 100%, 64.99939%)" fill-opacity="1" stroke-width="0.79701" stroke-linecap="butt" stroke-linejoin="miter" stroke="rgb(39.99939%, 39.99939%, 39.99939%)" stroke-opacity="1" stroke-miterlimit="10" d="M 136.549584 -22.875397 L 147.886128 -22.875397 L 147.886128 -11.538853 L 136.549584 -11.538853 Z M 136.549584 -22.875397 " transform="matrix(0.998568, 0, 0, -0.998568, 85.575618, 72.282356)"/>
<path fill-rule="nonzero" fill="rgb(64.99939%, 100%, 64.99939%)" fill-opacity="1" stroke-width="0.79701" stroke-linecap="butt" stroke-linejoin="miter" stroke="rgb(39.99939%, 39.99939%, 39.99939%)" stroke-opacity="1" stroke-miterlimit="10" d="M 149.587783 -22.875397 L 160.924328 -22.875397 L 160.924328 -11.538853 L 149.587783 -11.538853 Z M 149.587783 -22.875397 " transform="matrix(0.998568, 0, 0, -0.998568, 85.575618, 72.282356)"/>
<path fill-rule="nonzero" fill="rgb(64.99939%, 100%, 64.99939%)" fill-opacity="1" stroke-width="0.79701" stroke-linecap="butt" stroke-linejoin="miter" stroke="rgb(39.99939%, 39.99939%, 39.99939%)" stroke-opacity="1" stroke-miterlimit="10" d="M 162.625983 -22.875397 L 173.966439 -22.875397 L 173.966439 -11.538853 L 162.625983 -11.538853 Z M 162.625983 -22.875397 " transform="matrix(0.998568, 0, 0, -0.998568, 85.575618, 72.282356)"/>
<path fill-rule="nonzero" fill="rgb(64.99939%, 100%, 64.99939%)" fill-opacity="1" stroke-width="0.79701" stroke-linecap="butt" stroke-linejoin="miter" stroke="rgb(39.99939%, 39.99939%, 39.99939%)" stroke-opacity="1" stroke-miterlimit="10" d="M 175.668094 -22.875397 L 187.004639 -22.875397 L 187.004639 -11.538853 L 175.668094 -11.538853 Z M 175.668094 -22.875397 " transform="matrix(0.998568, 0, 0, -0.998568, 85.575618, 72.282356)"/>
<path fill-rule="nonzero" fill="rgb(64.99939%, 100%, 64.99939%)" fill-opacity="1" stroke-width="0.79701" stroke-linecap="butt" stroke-linejoin="miter" stroke="rgb(39.99939%, 39.99939%, 39.99939%)" stroke-opacity="1" stroke-miterlimit="10" d="M 188.706294 -22.875397 L 200.04675 -22.875397 L 200.04675 -11.538853 L 188.706294 -11.538853 Z M 188.706294 -22.875397 " transform="matrix(0.998568, 0, 0, -0.998568, 85.575618, 72.282356)"/>
<path fill-rule="nonzero" fill="rgb(64.99939%, 100%, 64.99939%)" fill-opacity="1" stroke-width="0.79701" stroke-linecap="butt" stroke-linejoin="miter" stroke="rgb(39.99939%, 39.99939%, 39.99939%)" stroke-opacity="1" stroke-miterlimit="10" d="M 201.744494 -22.875397 L 213.08495 -22.875397 L 213.08495 -11.538853 L 201.744494 -11.538853 Z M 201.744494 -22.875397 " transform="matrix(0.998568, 0, 0, -0.998568, 85.575618, 72.282356)"/>
<path fill-rule="nonzero" fill="rgb(64.99939%, 100%, 64.99939%)" fill-opacity="1" stroke-width="0.79701" stroke-linecap="butt" stroke-linejoin="miter" stroke="rgb(39.99939%, 39.99939%, 39.99939%)" stroke-opacity="1" stroke-miterlimit="10" d="M 214.786605 -22.875397 L 226.123149 -22.875397 L 226.123149 -11.538853 L 214.786605 -11.538853 Z M 214.786605 -22.875397 " transform="matrix(0.998568, 0, 0, -0.998568, 85.575618, 72.282356)"/>
<path fill-rule="nonzero" fill="rgb(64.99939%, 100%, 64.99939%)" fill-opacity="1" stroke-width="0.79701" stroke-linecap="butt" stroke-linejoin="miter" stroke="rgb(39.99939%, 39.99939%, 39.99939%)" stroke-opacity="1" stroke-miterlimit="10" d="M 227.824805 -22.875397 L 239.165261 -22.875397 L 239.165261 -11.538853 L 227.824805 -11.538853 Z M 227.824805 -22.875397 " transform="matrix(0.998568, 0, 0, -0.998568, 85.575618, 72.282356)"/>
<path fill-rule="nonzero" fill="rgb(64.99939%, 100%, 64.99939%)" fill-opacity="1" stroke-width="0.79701" stroke-linecap="butt" stroke-linejoin="miter" stroke="rgb(39.99939%, 39.99939%, 39.99939%)" stroke-opacity="1" stroke-miterlimit="10" d="M 240.866916 -22.875397 L 252.20346 -22.875397 L 252.20346 -11.538853 L 240.866916 -11.538853 Z M 240.866916 -22.875397 " transform="matrix(0.998568, 0, 0, -0.998568, 85.575618, 72.282356)"/>
<path fill-rule="nonzero" fill="rgb(64.99939%, 100%, 64.99939%)" fill-opacity="1" stroke-width="0.79701" stroke-linecap="butt" stroke-linejoin="miter" stroke="rgb(39.99939%, 39.99939%, 39.99939%)" stroke-opacity="1" stroke-miterlimit="10" d="M 253.905116 -22.875397 L 265.245572 -22.875397 L 265.245572 -11.538853 L 253.905116 -11.538853 Z M 253.905116 -22.875397 " transform="matrix(0.998568, 0, 0, -0.998568, 85.575618, 72.282356)"/>
<path fill-rule="nonzero" fill="rgb(64.99939%, 100%, 64.99939%)" fill-opacity="1" stroke-width="0.79701" stroke-linecap="butt" stroke-linejoin="miter" stroke="rgb(39.99939%, 39.99939%, 39.99939%)" stroke-opacity="1" stroke-miterlimit="10" d="M 266.943315 -22.875397 L 278.283771 -22.875397 L 278.283771 -11.538853 L 266.943315 -11.538853 Z M 266.943315 -22.875397 " transform="matrix(0.998568, 0, 0, -0.998568, 85.575618, 72.282356)"/>
<path fill-rule="nonzero" fill="rgb(64.99939%, 100%, 64.99939%)" fill-opacity="1" stroke-width="0.79701" stroke-linecap="butt" stroke-linejoin="miter" stroke="rgb(39.99939%, 39.99939%, 39.99939%)" stroke-opacity="1" stroke-miterlimit="10" d="M 123.507472 -37.048033 L 134.847929 -37.048033 L 134.847929 -25.711489 L 123.507472 -25.711489 Z M 123.507472 -37.048033 " transform="matrix(0.998568, 0, 0, -0.998568, 85.575618, 72.282356)"/>
<path fill-rule="nonzero" fill="rgb(64.99939%, 100%, 64.99939%)" fill-opacity="1" stroke-width="0.79701" stroke-linecap="butt" stroke-linejoin="miter" stroke="rgb(39.99939%, 39.99939%, 39.99939%)" stroke-opacity="1" stroke-miterlimit="10" d="M 136.549584 -37.048033 L 147.886128 -37.048033 L 147.886128 -25.711489 L 136.549584 -25.711489 Z M 136.549584 -37.048033 " transform="matrix(0.998568, 0, 0, -0.998568, 85.575618, 72.282356)"/>
<path fill-rule="nonzero" fill="rgb(64.99939%, 100%, 64.99939%)" fill-opacity="1" stroke-width="0.79701" stroke-linecap="butt" stroke-linejoin="miter" stroke="rgb(39.99939%, 39.99939%, 39.99939%)" stroke-opacity="1" stroke-miterlimit="10" d="M 149.587783 -37.048033 L 160.924328 -37.048033 L 160.924328 -25.711489 L 149.587783 -25.711489 Z M 149.587783 -37.048033 " transform="matrix(0.998568, 0, 0, -0.998568, 85.575618, 72.282356)"/>
<path fill-rule="nonzero" fill="rgb(64.99939%, 100%, 64.99939%)" fill-opacity="1" stroke-width="0.79701" stroke-linecap="butt" stroke-linejoin="miter" stroke="rgb(39.99939%, 39.99939%, 39.99939%)" stroke-opacity="1" stroke-miterlimit="10" d="M 162.625983 -37.048033 L 173.966439 -37.048033 L 173.966439 -25.711489 L 162.625983 -25.711489 Z M 162.625983 -37.048033 " transform="matrix(0.998568, 0, 0, -0.998568, 85.575618, 72.282356)"/>
<path fill-rule="nonzero" fill="rgb(64.99939%, 100%, 64.99939%)" fill-opacity="1" stroke-width="0.79701" stroke-linecap="butt" stroke-linejoin="miter" stroke="rgb(39.99939%, 39.99939%, 39.99939%)" stroke-opacity="1" stroke-miterlimit="10" d="M 175.668094 -37.048033 L 187.004639 -37.048033 L 187.004639 -25.711489 L 175.668094 -25.711489 Z M 175.668094 -37.048033 " transform="matrix(0.998568, 0, 0, -0.998568, 85.575618, 72.282356)"/>
<path fill-rule="nonzero" fill="rgb(64.99939%, 100%, 64.99939%)" fill-opacity="1" stroke-width="0.79701" stroke-linecap="butt" stroke-linejoin="miter" stroke="rgb(39.99939%, 39.99939%, 39.99939%)" stroke-opacity="1" stroke-miterlimit="10" d="M 188.706294 -37.048033 L 200.04675 -37.048033 L 200.04675 -25.711489 L 188.706294 -25.711489 Z M 188.706294 -37.048033 " transform="matrix(0.998568, 0, 0, -0.998568, 85.575618, 72.282356)"/>
<path fill-rule="nonzero" fill="rgb(64.99939%, 100%, 64.99939%)" fill-opacity="1" stroke-width="0.79701" stroke-linecap="butt" stroke-linejoin="miter" stroke="rgb(39.99939%, 39.99939%, 39.99939%)" stroke-opacity="1" stroke-miterlimit="10" d="M 201.744494 -37.048033 L 213.08495 -37.048033 L 213.08495 -25.711489 L 201.744494 -25.711489 Z M 201.744494 -37.048033 " transform="matrix(0.998568, 0, 0, -0.998568, 85.575618, 72.282356)"/>
<path fill-rule="nonzero" fill="rgb(64.99939%, 100%, 64.99939%)" fill-opacity="1" stroke-width="0.79701" stroke-linecap="butt" stroke-linejoin="miter" stroke="rgb(39.99939%, 39.99939%, 39.99939%)" stroke-opacity="1" stroke-miterlimit="10" d="M 214.786605 -37.048033 L 226.123149 -37.048033 L 226.123149 -25.711489 L 214.786605 -25.711489 Z M 214.786605 -37.048033 " transform="matrix(0.998568, 0, 0, -0.998568, 85.575618, 72.282356)"/>
<path fill-rule="nonzero" fill="rgb(64.99939%, 100%, 64.99939%)" fill-opacity="1" stroke-width="0.79701" stroke-linecap="butt" stroke-linejoin="miter" stroke="rgb(39.99939%, 39.99939%, 39.99939%)" stroke-opacity="1" stroke-miterlimit="10" d="M 227.824805 -37.048033 L 239.165261 -37.048033 L 239.165261 -25.711489 L 227.824805 -25.711489 Z M 227.824805 -37.048033 " transform="matrix(0.998568, 0, 0, -0.998568, 85.575618, 72.282356)"/>
<path fill-rule="nonzero" fill="rgb(64.99939%, 100%, 64.99939%)" fill-opacity="1" stroke-width="0.79701" stroke-linecap="butt" stroke-linejoin="miter" stroke="rgb(39.99939%, 39.99939%, 39.99939%)" stroke-opacity="1" stroke-miterlimit="10" d="M 240.866916 -37.048033 L 252.20346 -37.048033 L 252.20346 -25.711489 L 240.866916 -25.711489 Z M 240.866916 -37.048033 " transform="matrix(0.998568, 0, 0, -0.998568, 85.575618, 72.282356)"/>
<path fill-rule="nonzero" fill="rgb(64.99939%, 100%, 64.99939%)" fill-opacity="1" stroke-width="0.79701" stroke-linecap="butt" stroke-linejoin="miter" stroke="rgb(39.99939%, 39.99939%, 39.99939%)" stroke-opacity="1" stroke-miterlimit="10" d="M 253.905116 -37.048033 L 265.245572 -37.048033 L 265.245572 -25.711489 L 253.905116 -25.711489 Z M 253.905116 -37.048033 " transform="matrix(0.998568, 0, 0, -0.998568, 85.575618, 72.282356)"/>
<path fill-rule="nonzero" fill="rgb(64.99939%, 100%, 64.99939%)" fill-opacity="1" stroke-width="0.79701" stroke-linecap="butt" stroke-linejoin="miter" stroke="rgb(39.99939%, 39.99939%, 39.99939%)" stroke-opacity="1" stroke-miterlimit="10" d="M 266.943315 -37.048033 L 278.283771 -37.048033 L 278.283771 -25.711489 L 266.943315 -25.711489 Z M 266.943315 -37.048033 " transform="matrix(0.998568, 0, 0, -0.998568, 85.575618, 72.282356)"/>
<path fill-rule="nonzero" fill="rgb(64.99939%, 100%, 64.99939%)" fill-opacity="1" stroke-width="0.79701" stroke-linecap="butt" stroke-linejoin="miter" stroke="rgb(39.99939%, 39.99939%, 39.99939%)" stroke-opacity="1" stroke-miterlimit="10" d="M 123.507472 -51.224582 L 134.847929 -51.224582 L 134.847929 -39.884125 L 123.507472 -39.884125 Z M 123.507472 -51.224582 " transform="matrix(0.998568, 0, 0, -0.998568, 85.575618, 72.282356)"/>
<path fill-rule="nonzero" fill="rgb(64.99939%, 100%, 64.99939%)" fill-opacity="1" stroke-width="0.79701" stroke-linecap="butt" stroke-linejoin="miter" stroke="rgb(39.99939%, 39.99939%, 39.99939%)" stroke-opacity="1" stroke-miterlimit="10" d="M 136.549584 -51.224582 L 147.886128 -51.224582 L 147.886128 -39.884125 L 136.549584 -39.884125 Z M 136.549584 -51.224582 " transform="matrix(0.998568, 0, 0, -0.998568, 85.575618, 72.282356)"/>
<path fill-rule="nonzero" fill="rgb(64.99939%, 100%, 64.99939%)" fill-opacity="1" stroke-width="0.79701" stroke-linecap="butt" stroke-linejoin="miter" stroke="rgb(39.99939%, 39.99939%, 39.99939%)" stroke-opacity="1" stroke-miterlimit="10" d="M 149.587783 -51.224582 L 160.924328 -51.224582 L 160.924328 -39.884125 L 149.587783 -39.884125 Z M 149.587783 -51.224582 " transform="matrix(0.998568, 0, 0, -0.998568, 85.575618, 72.282356)"/>
<path fill-rule="nonzero" fill="rgb(64.99939%, 100%, 64.99939%)" fill-opacity="1" stroke-width="0.79701" stroke-linecap="butt" stroke-linejoin="miter" stroke="rgb(39.99939%, 39.99939%, 39.99939%)" stroke-opacity="1" stroke-miterlimit="10" d="M 162.625983 -51.224582 L 173.966439 -51.224582 L 173.966439 -39.884125 L 162.625983 -39.884125 Z M 162.625983 -51.224582 " transform="matrix(0.998568, 0, 0, -0.998568, 85.575618, 72.282356)"/>
<path fill-rule="nonzero" fill="rgb(64.99939%, 100%, 64.99939%)" fill-opacity="1" stroke-width="0.79701" stroke-linecap="butt" stroke-linejoin="miter" stroke="rgb(39.99939%, 39.99939%, 39.99939%)" stroke-opacity="1" stroke-miterlimit="10" d="M 175.668094 -51.224582 L 187.004639 -51.224582 L 187.004639 -39.884125 L 175.668094 -39.884125 Z M 175.668094 -51.224582 " transform="matrix(0.998568, 0, 0, -0.998568, 85.575618, 72.282356)"/>
<path fill-rule="nonzero" fill="rgb(64.99939%, 100%, 64.99939%)" fill-opacity="1" stroke-width="0.79701" stroke-linecap="butt" stroke-linejoin="miter" stroke="rgb(39.99939%, 39.99939%, 39.99939%)" stroke-opacity="1" stroke-miterlimit="10" d="M 188.706294 -51.224582 L 200.04675 -51.224582 L 200.04675 -39.884125 L 188.706294 -39.884125 Z M 188.706294 -51.224582 " transform="matrix(0.998568, 0, 0, -0.998568, 85.575618, 72.282356)"/>
<path fill-rule="nonzero" fill="rgb(64.99939%, 100%, 64.99939%)" fill-opacity="1" stroke-width="0.79701" stroke-linecap="butt" stroke-linejoin="miter" stroke="rgb(39.99939%, 39.99939%, 39.99939%)" stroke-opacity="1" stroke-miterlimit="10" d="M 201.744494 -51.224582 L 213.08495 -51.224582 L 213.08495 -39.884125 L 201.744494 -39.884125 Z M 201.744494 -51.224582 " transform="matrix(0.998568, 0, 0, -0.998568, 85.575618, 72.282356)"/>
<path fill-rule="nonzero" fill="rgb(64.99939%, 100%, 64.99939%)" fill-opacity="1" stroke-width="0.79701" stroke-linecap="butt" stroke-linejoin="miter" stroke="rgb(39.99939%, 39.99939%, 39.99939%)" stroke-opacity="1" stroke-miterlimit="10" d="M 214.786605 -51.224582 L 226.123149 -51.224582 L 226.123149 -39.884125 L 214.786605 -39.884125 Z M 214.786605 -51.224582 " transform="matrix(0.998568, 0, 0, -0.998568, 85.575618, 72.282356)"/>
<path fill-rule="nonzero" fill="rgb(64.99939%, 100%, 64.99939%)" fill-opacity="1" stroke-width="0.79701" stroke-linecap="butt" stroke-linejoin="miter" stroke="rgb(39.99939%, 39.99939%, 39.99939%)" stroke-opacity="1" stroke-miterlimit="10" d="M 227.824805 -51.224582 L 239.165261 -51.224582 L 239.165261 -39.884125 L 227.824805 -39.884125 Z M 227.824805 -51.224582 " transform="matrix(0.998568, 0, 0, -0.998568, 85.575618, 72.282356)"/>
<path fill-rule="nonzero" fill="rgb(64.99939%, 100%, 64.99939%)" fill-opacity="1" stroke-width="0.79701" stroke-linecap="butt" stroke-linejoin="miter" stroke="rgb(39.99939%, 39.99939%, 39.99939%)" stroke-opacity="1" stroke-miterlimit="10" d="M 240.866916 -51.224582 L 252.20346 -51.224582 L 252.20346 -39.884125 L 240.866916 -39.884125 Z M 240.866916 -51.224582 " transform="matrix(0.998568, 0, 0, -0.998568, 85.575618, 72.282356)"/>
<path fill-rule="nonzero" fill="rgb(64.99939%, 100%, 64.99939%)" fill-opacity="1" stroke-width="0.79701" stroke-linecap="butt" stroke-linejoin="miter" stroke="rgb(39.99939%, 39.99939%, 39.99939%)" stroke-opacity="1" stroke-miterlimit="10" d="M 253.905116 -51.224582 L 265.245572 -51.224582 L 265.245572 -39.884125 L 253.905116 -39.884125 Z M 253.905116 -51.224582 " transform="matrix(0.998568, 0, 0, -0.998568, 85.575618, 72.282356)"/>
<path fill-rule="nonzero" fill="rgb(64.99939%, 100%, 64.99939%)" fill-opacity="1" stroke-width="0.79701" stroke-linecap="butt" stroke-linejoin="miter" stroke="rgb(39.99939%, 39.99939%, 39.99939%)" stroke-opacity="1" stroke-miterlimit="10" d="M 266.943315 -51.224582 L 278.283771 -51.224582 L 278.283771 -39.884125 L 266.943315 -39.884125 Z M 266.943315 -51.224582 " transform="matrix(0.998568, 0, 0, -0.998568, 85.575618, 72.282356)"/>
<g fill="rgb(16.549683%, 60.844421%, 78.747559%)" fill-opacity="1">
<use xlink:href="#glyph-1-3" x="267.958105" y="163.785153"/>
<use xlink:href="#glyph-1-1" x="278.46311" y="163.785153"/>
<use xlink:href="#glyph-1-2" x="288.531184" y="163.785153"/>
</g>
</svg>
